<svg width="512" height="512" viewBox="0 0 512 512" fill="none" xmlns="http://www.w3.org/2000/svg">
  <rect width="512" height="512" rx="112" fill="#05070B"/>
  <defs>
    <linearGradient id="base" x1="13" y1="8" x2="52" y2="57" gradientUnits="userSpaceOnUse">
      <stop stop-color="#F9FCFF"/>
      <stop offset="0.38" stop-color="#ADC5EA"/>
      <stop offset="0.63" stop-color="#3068D2"/>
      <stop offset="1" stop-color="#29C7FF"/>
    </linearGradient>
    <linearGradient id="silver" x1="13" y1="8" x2="45" y2="37" gradientUnits="userSpaceOnUse">
      <stop stop-color="#FBFDFF"/>
      <stop offset="0.42" stop-color="#E4EEF9"/>
      <stop offset="0.75" stop-color="#A9C3E8"/>
      <stop offset="1" stop-color="#547DC8"/>
    </linearGradient>
    <linearGradient id="blue" x1="13" y1="46" x2="53" y2="29" gradientUnits="userSpaceOnUse">
      <stop stop-color="#33CCFF"/>
      <stop offset="0.43" stop-color="#197EF0"/>
      <stop offset="1" stop-color="#214DB9"/>
    </linearGradient>
    <linearGradient id="highlight" x1="17" y1="14" x2="32" y2="31" gradientUnits="userSpaceOnUse">
      <stop stop-color="white" stop-opacity="0.72"/>
      <stop offset="1" stop-color="white" stop-opacity="0"/>
    </linearGradient>
    <filter id="glow" x="-30%" y="-30%" width="160%" height="160%">
      <feGaussianBlur stdDeviation="2.5"/>
    </filter>
  </defs>
  <g transform="translate(115.2 115.2) scale(4.4)">
    <path
      d="M32 4C16.536 4 4 16.536 4 32s12.536 28 28 28 28-12.536 28-28S47.464 4 32 4Zm0 14.25c7.594 0 13.75 6.156 13.75 13.75S39.594 45.75 32 45.75 18.25 39.594 18.25 32 24.406 18.25 32 18.25Z"
      fill="#2784FF"
      fill-opacity="0.26"
      fill-rule="evenodd"
      clip-rule="evenodd"
      filter="url(#glow)"
    />
    <path
      d="M32 4C16.536 4 4 16.536 4 32s12.536 28 28 28 28-12.536 28-28S47.464 4 32 4Zm0 14.25c7.594 0 13.75 6.156 13.75 13.75S39.594 45.75 32 45.75 18.25 39.594 18.25 32 24.406 18.25 32 18.25Z"
      fill="url(#base)"
      fill-rule="evenodd"
      clip-rule="evenodd"
    />
    <path d="M8.89 39.77C3.94 27.02 8.5 13.63 20.2 7.16 30.08 1.7 42.45 4.02 50.12 12.6c-7.23-3.44-16.03-2.75-22.63 2.46-7.72 6.08-9.52 16.3-4.34 24.52-5.7 3.17-10.28 3.25-14.26.19Z" fill="url(#silver)"/>
    <path d="M55.11 24.23c4.95 12.75.39 26.14-11.31 32.61-9.88 5.46-22.25 3.14-29.92-5.44 7.23 3.44 16.03 2.75 22.63-2.46 7.72-6.08 9.52-16.3 4.34-24.52 5.7-3.17 10.28-3.25 14.26-.19Z" fill="url(#blue)"/>
    <path d="M14.16 29.82c.64-8.58 7.45-16.33 16.33-17.6 4.63-.67 9.19.31 13.05 2.56-4.81-1.02-9.98-.01-14.02 3.17-5.04 3.97-7.47 10.09-6.75 16.01-3.45-.48-6.21-1.86-8.61-4.14Z" fill="url(#highlight)"/>
  </g>
</svg>
